  0
SECTION
  2
HEADER
  9
$ACADVER
  1
AC1014
  9
$HANDSEED
  5
FFFF
  9
$MEASUREMENT
 70
     1
  0
ENDSEC
  0
SECTION
  2
TABLES
  0
TABLE
  2
VPORT
  5
8
330
0
100
AcDbSymbolTable
 70
     4
  0
VPORT
  5
2E
330
8
100
AcDbSymbolTableRecord
100
AcDbViewportTableRecord
  2
*ACTIVE
 70
     0
 10
0.0
 20
0.0
 11
1.0
 21
1.0
 12
210.0
 22
148.5
 13
0.0
 23
0.0
 14
10.0
 24
10.0
 15
10.0
 25
10.0
 16
0.0
 26
0.0
 36
1.0
 17
0.0
 27
0.0
 37
0.0
 40
341.0
 41
1.24
 42
50.0
 43
0.0
 44
0.0
 50
0.0
 51
0.0
 71
     0
 72
   100
 73
     1
 74
     3
 75
     0
 76
     0
 77
     0
 78
     0
  0
ENDTAB
  0
TABLE
  2
LTYPE
  5
5
330
0
100
AcDbSymbolTable
 70
     1
  0
LTYPE
  5
14
330
5
100
AcDbSymbolTableRecord
100
AcDbLinetypeTableRecord
  2
BYBLOCK
 70
     0
  3

 72
    65
 73
     0
 40
0.0
  0
LTYPE
  5
15
330
5
100
AcDbSymbolTableRecord
100
AcDbLinetypeTableRecord
  2
BYLAYER
 70
     0
  3

 72
    65
 73
     0
 40
0.0
  0
LTYPE
  5
16
330
5
100
AcDbSymbolTableRecord
100
AcDbLinetypeTableRecord
  2
CONTINUOUS
 70
     0
  3
Solid line
 72
    65
 73
     0
 40
0.0
  0
ENDTAB
  0
TABLE
  2
LAYER
  5
2
100
AcDbSymbolTable
 70
3
  0
LAYER
  5
50
100
AcDbSymbolTableRecord
100
AcDbLayerTableRecord
  2
0
 70
0
  6
CONTINUOUS
  0
LAYER
  5
51
100
AcDbSymbolTableRecord
100
AcDbLayerTableRecord
  2
Layer_1
 70
0
  6
CONTINUOUS
  0
LAYER
  5
52
100
AcDbSymbolTableRecord
100
AcDbLayerTableRecord
  2
SpokeHole
 70
0
  6
CONTINUOUS
  0
ENDTAB
  0
TABLE
  2
STYLE
  5
3
330
0
100
AcDbSymbolTable
 70
     1
  0
STYLE
  5
11
330
3
100
AcDbSymbolTableRecord
100
AcDbTextStyleTableRecord
  2
STANDARD
 70
     0
 40
0.0
 41
1.0
 50
0.0
 71
     0
 42
2.5
  3
txt
  4

  0
ENDTAB
  0
TABLE
  2
VIEW
  5
6
330
0
100
AcDbSymbolTable
 70
     0
  0
ENDTAB
  0
TABLE
  2
UCS
  5
7
330
0
100
AcDbSymbolTable
 70
     0
  0
ENDTAB
  0
TABLE
  2
APPID
  5
9
330
0
100
AcDbSymbolTable
 70
     2
  0
APPID
  5
12
330
9
100
AcDbSymbolTableRecord
100
AcDbRegAppTableRecord
  2
ACAD
 70
     0
  0
ENDTAB
  0
TABLE
  2
DIMSTYLE
  5
A
330
0
100
AcDbSymbolTable
 70
     1
  0
DIMSTYLE
105
27
330
A
100
AcDbSymbolTableRecord
100
AcDbDimStyleTableRecord
  2
ISO-25
 70
     0
  3

  4

  5

  6

  7

 40
1.0
 41
2.5
 42
0.625
 43
3.75
 44
1.25
 45
0.0
 46
0.0
 47
0.0
 48
0.0
140
2.5
141
2.5
142
0.0
143
0.03937007874016
144
1.0
145
0.0
146
1.0
147
0.625
 71
     0
 72
     0
 73
     0
 74
     0
 75
     0
 76
     0
 77
     1
 78
     8
170
     0
171
     3
172
     1
173
     0
174
     0
175
     0
176
     0
177
     0
178
     0
270
     2
271
     2
272
     2
273
     2
274
     3
340
11
275
     0
280
     0
281
     0
282
     0
283
     0
284
     8
285
     0
286
     0
287
     3
288
     0
  0
ENDTAB
  0
TABLE
  2
BLOCK_RECORD
  5
1
330
0
100
AcDbSymbolTable
 70
     1
  0
BLOCK_RECORD
  5
1F
330
1
100
AcDbSymbolTableRecord
100
AcDbBlockTableRecord
  2
*MODEL_SPACE
  0
BLOCK_RECORD
  5
1B
330
1
100
AcDbSymbolTableRecord
100
AcDbBlockTableRecord
  2
*PAPER_SPACE
  0
ENDTAB
  0
ENDSEC
  0
SECTION
  2
BLOCKS
  0
BLOCK
  5
20
330
1F
100
AcDbEntity
  8
0
100
AcDbBlockBegin
  2
*MODEL_SPACE
 70
     0
 10
0.0
 20
0.0
 30
0.0
  3
*MODEL_SPACE
  1

  0
ENDBLK
  5
21
330
1F
100
AcDbEntity
  8
0
100
AcDbBlockEnd
  0
BLOCK
  5
1C
330
1B
100
AcDbEntity
 67
     1
  8
0
100
AcDbBlockBegin
  2
*PAPER_SPACE
  1

  0
ENDBLK
  5
1D
330
1B
100
AcDbEntity
 67
     1
  8
0
100
AcDbBlockEnd
  0
ENDSEC
  0
SECTION
  2
ENTITIES
  0
SPLINE
  5
100
100
AcDbEntity
  8
Layer_1
 62
7
100
AcDbSpline
 70
8
 71
3
 72
8
 73
4
 74
0
 40
0
 40
0
 40
0
 40
0
 40
1
 40
1
 40
1
 40
1
 10
8.733922
 20
-0.000003
 30
0.0
 10
8.733922
 20
-4.823604
 30
0.0
 10
4.823612
 20
-8.733913
 30
0.0
 10
-0.000000
 20
-8.733913
 30
0.0
  0
SPLINE
  5
101
100
AcDbEntity
  8
Layer_1
 62
7
100
AcDbSpline
 70
8
 71
3
 72
8
 73
4
 74
0
 40
0
 40
0
 40
0
 40
0
 40
1
 40
1
 40
1
 40
1
 10
-0.000000
 20
-8.733913
 30
0.0
 10
-4.823612
 20
-8.733913
 30
0.0
 10
-8.733923
 20
-4.823604
 30
0.0
 10
-8.733923
 20
-0.000003
 30
0.0
  0
SPLINE
  5
102
100
AcDbEntity
  8
Layer_1
 62
7
100
AcDbSpline
 70
8
 71
3
 72
8
 73
4
 74
0
 40
0
 40
0
 40
0
 40
0
 40
1
 40
1
 40
1
 40
1
 10
-8.733923
 20
-0.000003
 30
0.0
 10
-8.733923
 20
4.823623
 30
0.0
 10
-4.823612
 20
8.733932
 30
0.0
 10
-0.000000
 20
8.733932
 30
0.0
  0
SPLINE
  5
103
100
AcDbEntity
  8
Layer_1
 62
7
100
AcDbSpline
 70
8
 71
3
 72
8
 73
4
 74
0
 40
0
 40
0
 40
0
 40
0
 40
1
 40
1
 40
1
 40
1
 10
-0.000000
 20
8.733932
 30
0.0
 10
4.823612
 20
8.733932
 30
0.0
 10
8.733922
 20
4.823623
 30
0.0
 10
8.733922
 20
-0.000003
 30
0.0
  0
LWPOLYLINE
  5
104
100
AcDbEntity
  8
Layer_1
 62
7
100
AcDbPolyline
 90
37
 70
0
 10
13.609487
 20
-14.555383
 30
0.0
 10
5.429442
 20
-8.341175
 30
0.0
 10
7.778340
 20
-18.302424
 30
0.0
 10
2.230727
 20
-9.683197
 30
0.0
 10
1.009010
 20
-19.841929
 30
0.0
 10
-1.237046
 20
-9.857279
 30
0.0
 10
-5.882021
 20
-18.988200
 30
0.0
 10
-4.555614
 20
-8.842432
 30
0.0
 10
-12.063594
 20
-15.844216
 30
0.0
 10
-7.324707
 20
-6.761057
 30
0.0
 10
-16.790119
 20
-10.789176
 30
0.0
 10
-9.210333
 20
-3.864198
 30
0.0
 10
-19.491509
 20
-4.432814
 30
0.0
 10
-9.985055
 20
-0.501262
 30
0.0
 10
-19.841934
 20
2.458218
 30
0.0
 10
-9.555434
 20
2.922138
 30
0.0
 10
-17.799128
 20
9.052752
 30
0.0
 10
-7.973286
 20
5.993086
 30
0.0
 10
-13.609486
 20
14.555392
 30
0.0
 10
-5.429442
 20
8.341181
 30
0.0
 10
-7.778340
 20
18.302437
 30
0.0
 10
-2.230727
 20
9.683206
 30
0.0
 10
-1.009010
 20
19.841939
 30
0.0
 10
1.237047
 20
9.857294
 30
0.0
 10
5.882022
 20
18.988211
 30
0.0
 10
4.555614
 20
8.842448
 30
0.0
 10
12.063594
 20
15.844225
 30
0.0
 10
7.324707
 20
6.761071
 30
0.0
 10
16.790119
 20
10.789191
 30
0.0
 10
9.210333
 20
3.864212
 30
0.0
 10
19.491509
 20
4.432823
 30
0.0
 10
9.985056
 20
0.501271
 30
0.0
 10
19.841934
 20
-2.458205
 30
0.0
 10
9.555434
 20
-2.922122
 30
0.0
 10
17.799129
 20
-9.052749
 30
0.0
 10
7.973286
 20
-5.993077
 30
0.0
 10
13.609487
 20
-14.555383
 30
0.0
  0
LWPOLYLINE
  5
105
100
AcDbEntity
  8
Layer_1
 62
7
100
AcDbPolyline
 90
2
 70
0
 10
8.733922
 20
-0.000003
 30
0.0
 10
8.733922
 20
-0.000003
 30
0.0
  0
LWPOLYLINE
  5
106
100
AcDbEntity
  8
SpokeHole
 62
7
100
AcDbPolyline
 90
38
 70
0
 10
5.860929
 20
18.982024
 30
0.0
 10
5.364875
 20
17.353530
 30
0.0
 10
4.887632
 20
15.666210
 30
0.0
 10
4.384533
 20
13.706438
 30
0.0
 10
4.153043
 20
12.696945
 30
0.0
 10
3.950795
 20
11.706413
 30
0.0
 10
3.789690
 20
10.763867
 30
0.0
 10
3.681632
 20
9.898331
 30
0.0
 10
3.638522
 20
9.138832
 30
0.0
 10
3.645042
 20
8.807915
 30
0.0
 10
3.672262
 20
8.514392
 30
0.0
 10
3.721670
 20
8.261890
 30
0.0
 10
3.794754
 20
8.054038
 30
0.0
 10
3.893002
 20
7.894463
 30
0.0
 10
4.017901
 20
7.786793
 30
0.0
 10
4.171247
 20
7.734493
 30
0.0
 10
4.352415
 20
7.736315
 30
0.0
 10
4.559262
 20
7.788817
 30
0.0
 10
4.789643
 20
7.888560
 30
0.0
 10
5.041415
 20
8.032103
 30
0.0
 10
5.312434
 20
8.216005
 30
0.0
 10
5.903637
 20
8.691129
 30
0.0
 10
6.546102
 20
9.286408
 30
0.0
 10
7.222679
 20
9.974318
 30
0.0
 10
7.916217
 20
10.727338
 30
0.0
 10
8.609565
 20
11.517945
 30
0.0
 10
9.927091
 20
13.101825
 30
0.0
 10
11.038052
 20
14.505775
 30
0.0
 10
12.091467
 20
15.893155
 30
0.0
 10
11.479351
 20
16.353267
 30
0.0
 10
10.752829
 20
16.828567
 30
0.0
 10
9.945288
 20
17.300889
 30
0.0
 10
9.090119
 20
17.752068
 30
0.0
 10
8.220709
 20
18.163937
 30
0.0
 10
7.370448
 20
18.518330
 30
0.0
 10
6.572725
 20
18.797081
 30
0.0
 10
5.860929
 20
18.982024
 30
0.0
 10
5.860929
 20
18.982024
 30
0.0
  0
ENDSEC
  0
SECTION
  2
OBJECTS
  0
DICTIONARY
  5
C
330
0
100
AcDbDictionary
  3
ACAD_GROUP
350
D
  3
ACAD_MLINESTYLE
350
17
  0
DICTIONARY
  5
D
330
C
100
AcDbDictionary
  0
DICTIONARY
  5
1A
330
C
100
AcDbDictionary
  0
DICTIONARY
  5
17
330
C
100
AcDbDictionary
  3
STANDARD
350
18
  0
DICTIONARY
  5
19
330
C
100
AcDbDictionary
  0
ENDSEC
  0
EOF
